<svg xmlns="http://www.w3.org/2000/svg" viewBox="0 0 260 125"><defs><style>.cls-1{fill:#feff01;}.cls-2,.cls-4{fill:none;}.cls-3{fill:#306a82;}.cls-4{stroke:#a4d555;stroke-miterlimit:10;}</style></defs><title>logo</title><g id="Layer_2" data-name="Layer 2"><g id="Layer_1-2" data-name="Layer 1"><path class="cls-1" d="M34.75,63h189.5a113.52,113.52,0,0,0-189.5,0Z"/><rect class="cls-2" width="260" height="125"/><path class="cls-3" d="M34.06,91.26V68.54h3.19V91.26Zm1.55-19.69v-3h13v3Zm0,9.92v-3H46.94v3Zm0,9.77v-3h13v3Z"/><path class="cls-3" d="M58.47,86.62l4-11.58h3.33L59.67,91.26h-2.4L51.16,75h3.32Z"/><path class="cls-3" d="M75.2,91.49A7,7,0,0,1,70,89.61a7.33,7.33,0,0,1-1.86-5.38V82.4a8.09,8.09,0,0,1,1.79-5.61,6.45,6.45,0,0,1,5-2,5.57,5.57,0,0,1,4.74,2.25,10.4,10.4,0,0,1,1.68,6.31v1.06H70.41V81.87h7.9a5.45,5.45,0,0,0-1-3.08,2.88,2.88,0,0,0-2.37-1.11,3.44,3.44,0,0,0-2.79,1.19,5,5,0,0,0-1,3.36v2.06a4.22,4.22,0,0,0,1.06,3.1,4.07,4.07,0,0,0,3,1.07A5.13,5.13,0,0,0,78.83,87l2.09,2.09a8.77,8.77,0,0,1-2.7,1.79A7.75,7.75,0,0,1,75.2,91.49Z"/><path class="cls-3" d="M85.72,91.26V75h3.19V91.26Zm9.84,0V81.43a3.7,3.7,0,0,0-.89-2.65,3.85,3.85,0,0,0-4.91-.11A3.07,3.07,0,0,0,88.91,81l-.33-3.12a5.83,5.83,0,0,1,2-2.27,4.78,4.78,0,0,1,2.68-.79,5,5,0,0,1,4.08,1.72,7.39,7.39,0,0,1,1.45,4.89v9.84Z"/><path class="cls-3" d="M102.34,77.92V75h7.32v2.88Zm5.47,13.34a3.52,3.52,0,0,1-2.9-1.11A5,5,0,0,1,104,87V70.32h3.18V87a1.51,1.51,0,0,0,.24.91.78.78,0,0,0,.69.33h1.53v3Z"/><path class="cls-3" d="M119.81,91.26V68.54H123V91.26Zm2-9.67v-3h12.61v3Zm10.92,9.67V68.54h3.19V91.26Z"/><path class="cls-3" d="M147.44,91.49a6.45,6.45,0,0,1-4.94-1.85,7.26,7.26,0,0,1-1.75-5.21V81.79a7.11,7.11,0,0,1,1.75-5.15,7.58,7.58,0,0,1,9.88,0,7.15,7.15,0,0,1,1.75,5.15v2.69a7.23,7.23,0,0,1-1.75,5.18A6.53,6.53,0,0,1,147.44,91.49Zm0-3a3.28,3.28,0,0,0,2.6-1,4.3,4.3,0,0,0,.92-2.94V81.79a4.26,4.26,0,0,0-.92-2.92,3.3,3.3,0,0,0-2.6-1,3.26,3.26,0,0,0-2.58,1,4.31,4.31,0,0,0-.9,2.92v2.69a4.34,4.34,0,0,0,.9,2.94A3.23,3.23,0,0,0,147.42,88.46Z"/><path class="cls-3" d="M158.66,91.26V75h3.18V91.26Zm8.92-12.37a3.11,3.11,0,0,0-2.55-1A2.89,2.89,0,0,0,161.84,81l-.32-3.12a5.77,5.77,0,0,1,1.93-2.25,4.57,4.57,0,0,1,2.63-.81,5.06,5.06,0,0,1,3.58,1.26Z"/><path class="cls-3" d="M172.31,71.73V68.54h3.19v3.19Zm0,19.53V75h3.19V91.26Z"/><path class="cls-3" d="M191.53,75v2.69l-7.8,10.58H192v3H179.88V88.51l8-10.52h-7.79V75Z"/><path class="cls-3" d="M202.39,91.49a6.46,6.46,0,0,1-4.94-1.85,7.31,7.31,0,0,1-1.75-5.21V81.79a7.15,7.15,0,0,1,1.75-5.15,7.58,7.58,0,0,1,9.88,0,7.15,7.15,0,0,1,1.75,5.15v2.69a7.23,7.23,0,0,1-1.75,5.18A6.51,6.51,0,0,1,202.39,91.49Zm0-3a3.27,3.27,0,0,0,2.59-1,4.3,4.3,0,0,0,.92-2.94V81.79a4.26,4.26,0,0,0-.92-2.92,3.3,3.3,0,0,0-2.59-1,3.23,3.23,0,0,0-2.58,1,4.26,4.26,0,0,0-.91,2.92v2.69a4.3,4.3,0,0,0,.91,2.94A3.21,3.21,0,0,0,202.38,88.46Z"/><path class="cls-3" d="M213.61,91.26V75h3.19V91.26Zm9.84,0V81.43a3.7,3.7,0,0,0-.89-2.65,3.85,3.85,0,0,0-4.91-.11A3.07,3.07,0,0,0,216.8,81l-.33-3.12a5.83,5.83,0,0,1,2-2.27,4.78,4.78,0,0,1,2.68-.79,5,5,0,0,1,4.09,1.72,7.45,7.45,0,0,1,1.44,4.89v9.84Z"/><line class="cls-4" x1="17" y1="99.5" x2="243" y2="99.5"/><line class="cls-4" x1="17" y1="101.5" x2="243" y2="101.5"/></g></g></svg>