<svg xmlns="http://www.w3.org/2000/svg" viewBox="0 0 273 79.01"><defs><style>.cls-1{fill:#fff;}.cls-2{fill:#f90f49;}.cls-3{fill:#a9bee0;}.cls-4{fill:#666;}</style></defs><title>glasses</title><g id="Layer_2" data-name="Layer 2"><g id="Layer_1-2" data-name="Layer 1"><path class="cls-1" d="M158.92,84h90.36c1.77,0,7.09.27,11.92-3a18.25,18.25,0,0,0,6-7c1.41-6.67,2.36-12.19,3-16,.29-1.78,3.35-21.38,1-38a15.57,15.57,0,0,0-3.5-8.48A14.05,14.05,0,0,0,259.2,7c-15.14-1.2-31.4-1.95-48.65-2-18.75-.06-36.35.71-52.63,2a15.73,15.73,0,0,0-7.42,4.53,12.7,12.7,0,0,0-3.18,5.73A12,12,0,0,0,147,20V72A12,12,0,0,0,158.92,84Z" transform="translate(0 -5)"/><path class="cls-1" d="M117,84H26c-1.78,0-7.14.27-12-3a18.29,18.29,0,0,1-6-7C6.58,67.33,5.62,61.81,5,58c-.29-1.78-3.37-21.38-1-38a15.51,15.51,0,0,1,3.52-8.48A14.19,14.19,0,0,1,16,7C31.24,5.8,47.62,5.05,65,5c18.89-.06,36.61.71,53,2a15.87,15.87,0,0,1,7.48,4.53,12.68,12.68,0,0,1,3.21,5.73A11.92,11.92,0,0,1,129,20V72A12,12,0,0,1,117,84Z" transform="translate(0 -5)"/><path class="cls-2" d="M103.91,79H30.09A13.13,13.13,0,0,1,17,65.91V31c-.06-3.51.46-8.15,3.37-12a12.59,12.59,0,0,1,6.74-4.6C34,12.3,94.18,13,101.89,14c5.63.76,9.24,2.44,11.85,6.06A19,19,0,0,1,117,31V65.91A13.13,13.13,0,0,1,103.91,79Z" transform="translate(0 -5)"/><path class="cls-1" d="M150.5,32a24,24,0,0,0-25,0,7.68,7.68,0,0,1-5.3-2.2,7.48,7.48,0,0,1-2.2-5.3h0a7.52,7.52,0,0,1,7.5-7.5h25a7.52,7.52,0,0,1,7.5,7.5h0A7.52,7.52,0,0,1,150.5,32Z" transform="translate(0 -5)"/><path class="cls-3" d="M138,0" transform="translate(0 -5)"/><path class="cls-3" d="M129,93" transform="translate(0 -5)"/><path class="cls-1" d="M7,23H7a7,7,0,0,1-7-7V14A7,7,0,0,1,7,7H7c2.29.06,5.76.11,10,0,7.53-.19,10.79-.72,11,0s-2.1,2.31-14,7v2A7,7,0,0,1,7,23Z" transform="translate(0 -5)"/><ellipse class="cls-4" cx="10" cy="10" rx="6" ry="3"/><path class="cls-2" d="M171.09,79h73.82A13.13,13.13,0,0,0,258,65.91V31c.06-3.51-.46-8.15-3.37-12a12.59,12.59,0,0,0-6.74-4.6C241,12.3,180.82,13,173.11,14c-5.63.76-9.24,2.44-11.85,6.06A19,19,0,0,0,158,31V65.91A13.13,13.13,0,0,0,171.09,79Z" transform="translate(0 -5)"/><path class="cls-1" d="M266,23h0a7,7,0,0,0,7-7V14a7,7,0,0,0-7-7h0c-2.29.06-5.76.11-10,0-7.53-.19-10.79-.72-11,0s2.1,2.31,14,7l.19.37A7,7,0,0,0,266,23Z" transform="translate(0 -5)"/><ellipse class="cls-4" cx="261" cy="11" rx="6" ry="3"/></g></g></svg>