<svg xmlns="http://www.w3.org/2000/svg" viewBox="0 0 286 81.07"><defs><style>.cls-1{fill:#fff;}.cls-2{fill:#9aaecc;}.cls-3{fill:#a9bee0;}.cls-4{fill:#666;}</style></defs><title>Asset 7</title><g id="Layer_2" data-name="Layer 2"><g id="Layer_1-2" data-name="Layer 1"><path class="cls-1" d="M284.36,9c-1.18-1.1-2.46-1-10-1-2.33,0-4.67-.09-7,0-4.38.18-18.32-1.91-49-2-18.89-.06-57.62,2-61,4a14.4,14.4,0,0,0-4.81,4.7A14.7,14.7,0,0,1,144,18a15,15,0,0,1-9.93-3.24c-.13-.25-.27-.51-.42-.76a14.48,14.48,0,0,0-5-5c-3.38-2-42.11-4.06-61-4C37,5.09,23,7.18,18.64,7c-2.33-.09-4.67,0-7,0-7.54,0-8.82-.1-10,1-2.91,2.71-1.09,8.71-1,9a14.42,14.42,0,0,0,4,6c4.24,4.4,2.5,10.33,2,34-.18,8.54.62,16,5.16,23a5.32,5.32,0,0,0,.84,1c4.92,4.72,10.83,3.43,44,4,6.5.11,10.67.07,19,0,37.85-.34,45.82-2.18,50-8,.6-.83,1.4-3.89,3-10,0,0,3.52-13.45,6-36l.11-1a23.87,23.87,0,0,1,16.38,0c.07.67.14,1.37.22,2.08,2.48,22.55,6,36,6,36,1.6,6.11,2.4,9.17,3,10,4.18,5.82,12.15,7.66,50,8,8.33.07,12.5.11,19,0,33.17-.57,39.08.72,44-4a5.32,5.32,0,0,0,.84-1c4.54-7.06,5.34-14.49,5.16-23-.5-23.67-2.24-29.6,2-34a14.42,14.42,0,0,0,4-6C285.45,17.71,287.26,11.71,284.36,9Zm-157,19.26s-.23,2.71-.53,5.48c-2.11,19.71-5.11,31.47-5.11,31.47-1.36,5.34-2,8-2.56,8.74-3.57,5.08-10.36,6.7-42.62,7-7.1.07-10.65.1-16.2,0-28.28-.5-33.31.63-37.51-3.5a4.62,4.62,0,0,1-.72-.85C17.29,69,14.48,24.15,20.13,17.1c6.1-7.62,89.89-9.69,101.55-2.59a12.51,12.51,0,0,1,4.26,4.37,13,13,0,0,1,1.7,5.24C127.57,25.25,127.46,26.64,127.32,28.26Zm136.6,49.33a4.62,4.62,0,0,1-.72.85c-4.2,4.13-9.23,3-37.51,3.5-5.54.1-9.09.07-16.2,0-32.26-.3-39.06-1.91-42.62-7-.51-.73-1.19-3.4-2.56-8.74,0,0-3-11.76-5.11-31.47-.3-2.77-.53-5.48-.53-5.48-.14-1.62-.24-3-.32-4.14a13,13,0,0,1,1.7-5.24,12.51,12.51,0,0,1,4.26-4.37c11.66-7.1,95.45-5,101.55,2.59C271.52,25.15,268.71,70,263.92,77.59Z" transform="translate(0 -5)"/><path class="cls-2" d="M171.5,0" transform="translate(0 -5)"/><path class="cls-3" d="M135,93" transform="translate(0 -5)"/><ellipse class="cls-4" cx="13" cy="10" rx="6" ry="3"/><ellipse class="cls-4" cx="273" cy="11" rx="6" ry="3"/></g></g></svg>